<mxfile host="app.diagrams.net" modified="2024-01-03T13:58:19.151Z" agent="Mozilla/5.0 (X11; Ubuntu; Linux x86_64; rv:120.0) Gecko/20100101 Firefox/120.0" etag="stlDH2DlKo0YaWBui9Jl" version="22.1.16" type="github">
  <diagram name="Page-1" id="f7vzojPi0NrR-iDLyBLp">
    <mxGraphModel dx="791" dy="470" grid="1" gridSize="10" guides="1" tooltips="1" connect="1" arrows="1" fold="1" page="1" pageScale="1" pageWidth="827" pageHeight="1169" math="0" shadow="0">
      <root>
        <mxCell id="0" />
        <mxCell id="1" parent="0" />
        <mxCell id="1EwDg9CfNvIyU5AI_Yrh-9" value="" style="shape=cube;whiteSpace=wrap;html=1;boundedLbl=1;backgroundOutline=1;darkOpacity=0.05;darkOpacity2=0.1;fillColor=#e1d5e7;strokeColor=#9673a6;" vertex="1" parent="1">
          <mxGeometry x="260" y="260" width="30" height="180" as="geometry" />
        </mxCell>
        <mxCell id="1EwDg9CfNvIyU5AI_Yrh-8" value="" style="shape=cube;whiteSpace=wrap;html=1;boundedLbl=1;backgroundOutline=1;darkOpacity=0.05;darkOpacity2=0.1;fillColor=#f8cecc;strokeColor=#b85450;" vertex="1" parent="1">
          <mxGeometry x="250" y="260" width="30" height="180" as="geometry" />
        </mxCell>
        <mxCell id="1EwDg9CfNvIyU5AI_Yrh-3" value="&lt;font style=&quot;font-size: 8px;&quot;&gt;(x, 1025, 4)&lt;/font&gt;" style="shape=cube;whiteSpace=wrap;html=1;boundedLbl=1;backgroundOutline=1;darkOpacity=0.05;darkOpacity2=0.1;fillColor=#d5e8d4;strokeColor=#82b366;" vertex="1" parent="1">
          <mxGeometry x="60" y="260" width="70" height="180" as="geometry" />
        </mxCell>
        <mxCell id="1EwDg9CfNvIyU5AI_Yrh-5" value="" style="endArrow=classic;html=1;rounded=0;entryX=0;entryY=0.278;entryDx=0;entryDy=0;entryPerimeter=0;" edge="1" parent="1" target="1EwDg9CfNvIyU5AI_Yrh-4">
          <mxGeometry width="50" height="50" relative="1" as="geometry">
            <mxPoint x="130" y="310" as="sourcePoint" />
            <mxPoint x="180" y="260" as="targetPoint" />
          </mxGeometry>
        </mxCell>
        <mxCell id="1EwDg9CfNvIyU5AI_Yrh-7" value="" style="shape=cube;whiteSpace=wrap;html=1;boundedLbl=1;backgroundOutline=1;darkOpacity=0.05;darkOpacity2=0.1;fillColor=#ffe6cc;strokeColor=#d79b00;" vertex="1" parent="1">
          <mxGeometry x="240" y="260" width="30" height="180" as="geometry" />
        </mxCell>
        <mxCell id="1EwDg9CfNvIyU5AI_Yrh-4" value="&lt;font style=&quot;font-size: 8px;&quot;&gt;(x, 1025, 32)&lt;/font&gt;" style="shape=cube;whiteSpace=wrap;html=1;boundedLbl=1;backgroundOutline=1;darkOpacity=0.05;darkOpacity2=0.1;fillColor=#dae8fc;strokeColor=#6c8ebf;" vertex="1" parent="1">
          <mxGeometry x="150" y="260" width="110" height="180" as="geometry" />
        </mxCell>
        <mxCell id="1EwDg9CfNvIyU5AI_Yrh-10" value="" style="endArrow=classic;html=1;rounded=0;entryX=0;entryY=0.278;entryDx=0;entryDy=0;entryPerimeter=0;" edge="1" parent="1">
          <mxGeometry width="50" height="50" relative="1" as="geometry">
            <mxPoint x="130" y="320" as="sourcePoint" />
            <mxPoint x="150" y="320" as="targetPoint" />
          </mxGeometry>
        </mxCell>
        <mxCell id="1EwDg9CfNvIyU5AI_Yrh-11" value="" style="endArrow=classic;html=1;rounded=0;entryX=0;entryY=0.278;entryDx=0;entryDy=0;entryPerimeter=0;" edge="1" parent="1">
          <mxGeometry width="50" height="50" relative="1" as="geometry">
            <mxPoint x="130" y="330" as="sourcePoint" />
            <mxPoint x="150" y="330" as="targetPoint" />
          </mxGeometry>
        </mxCell>
        <mxCell id="1EwDg9CfNvIyU5AI_Yrh-12" value="" style="endArrow=classic;html=1;rounded=0;entryX=0;entryY=0.278;entryDx=0;entryDy=0;entryPerimeter=0;" edge="1" parent="1">
          <mxGeometry width="50" height="50" relative="1" as="geometry">
            <mxPoint x="130" y="340" as="sourcePoint" />
            <mxPoint x="150" y="340" as="targetPoint" />
          </mxGeometry>
        </mxCell>
        <mxCell id="1EwDg9CfNvIyU5AI_Yrh-13" value="" style="endArrow=classic;html=1;rounded=0;entryX=0;entryY=0.278;entryDx=0;entryDy=0;entryPerimeter=0;" edge="1" parent="1">
          <mxGeometry width="50" height="50" relative="1" as="geometry">
            <mxPoint x="130" y="350" as="sourcePoint" />
            <mxPoint x="150" y="350" as="targetPoint" />
          </mxGeometry>
        </mxCell>
        <mxCell id="1EwDg9CfNvIyU5AI_Yrh-14" value="" style="endArrow=classic;html=1;rounded=0;entryX=0;entryY=0.278;entryDx=0;entryDy=0;entryPerimeter=0;" edge="1" parent="1">
          <mxGeometry width="50" height="50" relative="1" as="geometry">
            <mxPoint x="130" y="360" as="sourcePoint" />
            <mxPoint x="150" y="360" as="targetPoint" />
          </mxGeometry>
        </mxCell>
        <mxCell id="1EwDg9CfNvIyU5AI_Yrh-15" value="" style="endArrow=classic;html=1;rounded=0;entryX=0;entryY=0.278;entryDx=0;entryDy=0;entryPerimeter=0;" edge="1" parent="1">
          <mxGeometry width="50" height="50" relative="1" as="geometry">
            <mxPoint x="130" y="350" as="sourcePoint" />
            <mxPoint x="150" y="350" as="targetPoint" />
          </mxGeometry>
        </mxCell>
        <mxCell id="1EwDg9CfNvIyU5AI_Yrh-16" value="" style="endArrow=classic;html=1;rounded=0;entryX=0;entryY=0.278;entryDx=0;entryDy=0;entryPerimeter=0;" edge="1" parent="1">
          <mxGeometry width="50" height="50" relative="1" as="geometry">
            <mxPoint x="130" y="360" as="sourcePoint" />
            <mxPoint x="150" y="360" as="targetPoint" />
          </mxGeometry>
        </mxCell>
        <mxCell id="1EwDg9CfNvIyU5AI_Yrh-17" value="" style="endArrow=classic;html=1;rounded=0;entryX=0;entryY=0.278;entryDx=0;entryDy=0;entryPerimeter=0;" edge="1" parent="1">
          <mxGeometry width="50" height="50" relative="1" as="geometry">
            <mxPoint x="130" y="370" as="sourcePoint" />
            <mxPoint x="150" y="370" as="targetPoint" />
          </mxGeometry>
        </mxCell>
        <mxCell id="1EwDg9CfNvIyU5AI_Yrh-18" value="" style="endArrow=classic;html=1;rounded=0;entryX=0;entryY=0.278;entryDx=0;entryDy=0;entryPerimeter=0;" edge="1" parent="1">
          <mxGeometry width="50" height="50" relative="1" as="geometry">
            <mxPoint x="130" y="380" as="sourcePoint" />
            <mxPoint x="150" y="380" as="targetPoint" />
          </mxGeometry>
        </mxCell>
        <mxCell id="1EwDg9CfNvIyU5AI_Yrh-19" value="" style="endArrow=classic;html=1;rounded=0;entryX=0;entryY=0.278;entryDx=0;entryDy=0;entryPerimeter=0;" edge="1" parent="1">
          <mxGeometry width="50" height="50" relative="1" as="geometry">
            <mxPoint x="130" y="390" as="sourcePoint" />
            <mxPoint x="150" y="390" as="targetPoint" />
          </mxGeometry>
        </mxCell>
        <mxCell id="1EwDg9CfNvIyU5AI_Yrh-20" value="" style="endArrow=classic;html=1;rounded=0;entryX=0;entryY=0.278;entryDx=0;entryDy=0;entryPerimeter=0;" edge="1" parent="1">
          <mxGeometry width="50" height="50" relative="1" as="geometry">
            <mxPoint x="130" y="400" as="sourcePoint" />
            <mxPoint x="150" y="400" as="targetPoint" />
          </mxGeometry>
        </mxCell>
        <mxCell id="1EwDg9CfNvIyU5AI_Yrh-21" value="" style="endArrow=classic;html=1;rounded=0;entryX=0;entryY=0.278;entryDx=0;entryDy=0;entryPerimeter=0;" edge="1" parent="1">
          <mxGeometry width="50" height="50" relative="1" as="geometry">
            <mxPoint x="290" y="310" as="sourcePoint" />
            <mxPoint x="310" y="310" as="targetPoint" />
          </mxGeometry>
        </mxCell>
        <mxCell id="1EwDg9CfNvIyU5AI_Yrh-22" value="" style="endArrow=classic;html=1;rounded=0;entryX=0;entryY=0.278;entryDx=0;entryDy=0;entryPerimeter=0;" edge="1" parent="1">
          <mxGeometry width="50" height="50" relative="1" as="geometry">
            <mxPoint x="290" y="320" as="sourcePoint" />
            <mxPoint x="310" y="320" as="targetPoint" />
          </mxGeometry>
        </mxCell>
        <mxCell id="1EwDg9CfNvIyU5AI_Yrh-23" value="" style="endArrow=classic;html=1;rounded=0;entryX=0;entryY=0.278;entryDx=0;entryDy=0;entryPerimeter=0;" edge="1" parent="1">
          <mxGeometry width="50" height="50" relative="1" as="geometry">
            <mxPoint x="290" y="330" as="sourcePoint" />
            <mxPoint x="310" y="330" as="targetPoint" />
          </mxGeometry>
        </mxCell>
        <mxCell id="1EwDg9CfNvIyU5AI_Yrh-24" value="" style="endArrow=classic;html=1;rounded=0;entryX=0;entryY=0.278;entryDx=0;entryDy=0;entryPerimeter=0;" edge="1" parent="1">
          <mxGeometry width="50" height="50" relative="1" as="geometry">
            <mxPoint x="290" y="340" as="sourcePoint" />
            <mxPoint x="310" y="340" as="targetPoint" />
          </mxGeometry>
        </mxCell>
        <mxCell id="1EwDg9CfNvIyU5AI_Yrh-25" value="" style="endArrow=classic;html=1;rounded=0;entryX=0;entryY=0.278;entryDx=0;entryDy=0;entryPerimeter=0;" edge="1" parent="1">
          <mxGeometry width="50" height="50" relative="1" as="geometry">
            <mxPoint x="290" y="350" as="sourcePoint" />
            <mxPoint x="310" y="350" as="targetPoint" />
          </mxGeometry>
        </mxCell>
        <mxCell id="1EwDg9CfNvIyU5AI_Yrh-26" value="" style="endArrow=classic;html=1;rounded=0;entryX=0;entryY=0.278;entryDx=0;entryDy=0;entryPerimeter=0;" edge="1" parent="1">
          <mxGeometry width="50" height="50" relative="1" as="geometry">
            <mxPoint x="290" y="360" as="sourcePoint" />
            <mxPoint x="310" y="360" as="targetPoint" />
          </mxGeometry>
        </mxCell>
        <mxCell id="1EwDg9CfNvIyU5AI_Yrh-27" value="" style="endArrow=classic;html=1;rounded=0;entryX=0;entryY=0.278;entryDx=0;entryDy=0;entryPerimeter=0;" edge="1" parent="1">
          <mxGeometry width="50" height="50" relative="1" as="geometry">
            <mxPoint x="290" y="370" as="sourcePoint" />
            <mxPoint x="310" y="370" as="targetPoint" />
          </mxGeometry>
        </mxCell>
        <mxCell id="1EwDg9CfNvIyU5AI_Yrh-28" value="" style="endArrow=classic;html=1;rounded=0;entryX=0;entryY=0.278;entryDx=0;entryDy=0;entryPerimeter=0;" edge="1" parent="1">
          <mxGeometry width="50" height="50" relative="1" as="geometry">
            <mxPoint x="290" y="380" as="sourcePoint" />
            <mxPoint x="310" y="380" as="targetPoint" />
          </mxGeometry>
        </mxCell>
        <mxCell id="1EwDg9CfNvIyU5AI_Yrh-29" value="" style="endArrow=classic;html=1;rounded=0;entryX=0;entryY=0.278;entryDx=0;entryDy=0;entryPerimeter=0;" edge="1" parent="1">
          <mxGeometry width="50" height="50" relative="1" as="geometry">
            <mxPoint x="290" y="390" as="sourcePoint" />
            <mxPoint x="310" y="390" as="targetPoint" />
          </mxGeometry>
        </mxCell>
        <mxCell id="1EwDg9CfNvIyU5AI_Yrh-30" value="" style="endArrow=classic;html=1;rounded=0;entryX=0;entryY=0.278;entryDx=0;entryDy=0;entryPerimeter=0;" edge="1" parent="1">
          <mxGeometry width="50" height="50" relative="1" as="geometry">
            <mxPoint x="290" y="400" as="sourcePoint" />
            <mxPoint x="310" y="400" as="targetPoint" />
          </mxGeometry>
        </mxCell>
        <mxCell id="1EwDg9CfNvIyU5AI_Yrh-31" value="" style="shape=cube;whiteSpace=wrap;html=1;boundedLbl=1;backgroundOutline=1;darkOpacity=0.05;darkOpacity2=0.1;fillColor=#e1d5e7;strokeColor=#9673a6;" vertex="1" parent="1">
          <mxGeometry x="420" y="260" width="30" height="180" as="geometry" />
        </mxCell>
        <mxCell id="1EwDg9CfNvIyU5AI_Yrh-32" value="" style="shape=cube;whiteSpace=wrap;html=1;boundedLbl=1;backgroundOutline=1;darkOpacity=0.05;darkOpacity2=0.1;fillColor=#f8cecc;strokeColor=#b85450;" vertex="1" parent="1">
          <mxGeometry x="410" y="260" width="30" height="180" as="geometry" />
        </mxCell>
        <mxCell id="1EwDg9CfNvIyU5AI_Yrh-33" value="" style="shape=cube;whiteSpace=wrap;html=1;boundedLbl=1;backgroundOutline=1;darkOpacity=0.05;darkOpacity2=0.1;fillColor=#ffe6cc;strokeColor=#d79b00;" vertex="1" parent="1">
          <mxGeometry x="400" y="260" width="30" height="180" as="geometry" />
        </mxCell>
        <mxCell id="1EwDg9CfNvIyU5AI_Yrh-34" value="&lt;font style=&quot;font-size: 8px;&quot;&gt;(x, 1025, 8)&lt;/font&gt;" style="shape=cube;whiteSpace=wrap;html=1;boundedLbl=1;backgroundOutline=1;darkOpacity=0.05;darkOpacity2=0.1;fillColor=#dae8fc;strokeColor=#6c8ebf;" vertex="1" parent="1">
          <mxGeometry x="310" y="260" width="110" height="180" as="geometry" />
        </mxCell>
        <mxCell id="1EwDg9CfNvIyU5AI_Yrh-35" value="" style="endArrow=classic;html=1;rounded=0;entryX=0;entryY=0.278;entryDx=0;entryDy=0;entryPerimeter=0;" edge="1" parent="1">
          <mxGeometry width="50" height="50" relative="1" as="geometry">
            <mxPoint x="450" y="310" as="sourcePoint" />
            <mxPoint x="470" y="310" as="targetPoint" />
          </mxGeometry>
        </mxCell>
        <mxCell id="1EwDg9CfNvIyU5AI_Yrh-36" value="" style="endArrow=classic;html=1;rounded=0;entryX=0;entryY=0.278;entryDx=0;entryDy=0;entryPerimeter=0;" edge="1" parent="1">
          <mxGeometry width="50" height="50" relative="1" as="geometry">
            <mxPoint x="450" y="320" as="sourcePoint" />
            <mxPoint x="470" y="320" as="targetPoint" />
          </mxGeometry>
        </mxCell>
        <mxCell id="1EwDg9CfNvIyU5AI_Yrh-37" value="" style="endArrow=classic;html=1;rounded=0;entryX=0;entryY=0.278;entryDx=0;entryDy=0;entryPerimeter=0;" edge="1" parent="1">
          <mxGeometry width="50" height="50" relative="1" as="geometry">
            <mxPoint x="450" y="330" as="sourcePoint" />
            <mxPoint x="470" y="330" as="targetPoint" />
          </mxGeometry>
        </mxCell>
        <mxCell id="1EwDg9CfNvIyU5AI_Yrh-38" value="" style="endArrow=classic;html=1;rounded=0;entryX=0;entryY=0.278;entryDx=0;entryDy=0;entryPerimeter=0;" edge="1" parent="1">
          <mxGeometry width="50" height="50" relative="1" as="geometry">
            <mxPoint x="450" y="340" as="sourcePoint" />
            <mxPoint x="470" y="340" as="targetPoint" />
          </mxGeometry>
        </mxCell>
        <mxCell id="1EwDg9CfNvIyU5AI_Yrh-39" value="" style="endArrow=classic;html=1;rounded=0;entryX=0;entryY=0.278;entryDx=0;entryDy=0;entryPerimeter=0;" edge="1" parent="1">
          <mxGeometry width="50" height="50" relative="1" as="geometry">
            <mxPoint x="450" y="350" as="sourcePoint" />
            <mxPoint x="470" y="350" as="targetPoint" />
          </mxGeometry>
        </mxCell>
        <mxCell id="1EwDg9CfNvIyU5AI_Yrh-40" value="" style="endArrow=classic;html=1;rounded=0;entryX=0;entryY=0.278;entryDx=0;entryDy=0;entryPerimeter=0;" edge="1" parent="1">
          <mxGeometry width="50" height="50" relative="1" as="geometry">
            <mxPoint x="450" y="360" as="sourcePoint" />
            <mxPoint x="470" y="360" as="targetPoint" />
          </mxGeometry>
        </mxCell>
        <mxCell id="1EwDg9CfNvIyU5AI_Yrh-41" value="" style="endArrow=classic;html=1;rounded=0;entryX=0;entryY=0.278;entryDx=0;entryDy=0;entryPerimeter=0;" edge="1" parent="1">
          <mxGeometry width="50" height="50" relative="1" as="geometry">
            <mxPoint x="450" y="370" as="sourcePoint" />
            <mxPoint x="470" y="370" as="targetPoint" />
          </mxGeometry>
        </mxCell>
        <mxCell id="1EwDg9CfNvIyU5AI_Yrh-42" value="" style="endArrow=classic;html=1;rounded=0;entryX=0;entryY=0.278;entryDx=0;entryDy=0;entryPerimeter=0;" edge="1" parent="1">
          <mxGeometry width="50" height="50" relative="1" as="geometry">
            <mxPoint x="450" y="380" as="sourcePoint" />
            <mxPoint x="470" y="380" as="targetPoint" />
          </mxGeometry>
        </mxCell>
        <mxCell id="1EwDg9CfNvIyU5AI_Yrh-43" value="" style="endArrow=classic;html=1;rounded=0;entryX=0;entryY=0.278;entryDx=0;entryDy=0;entryPerimeter=0;" edge="1" parent="1">
          <mxGeometry width="50" height="50" relative="1" as="geometry">
            <mxPoint x="450" y="390" as="sourcePoint" />
            <mxPoint x="470" y="390" as="targetPoint" />
          </mxGeometry>
        </mxCell>
        <mxCell id="1EwDg9CfNvIyU5AI_Yrh-44" value="" style="endArrow=classic;html=1;rounded=0;entryX=0;entryY=0.278;entryDx=0;entryDy=0;entryPerimeter=0;" edge="1" parent="1">
          <mxGeometry width="50" height="50" relative="1" as="geometry">
            <mxPoint x="450" y="400" as="sourcePoint" />
            <mxPoint x="470" y="400" as="targetPoint" />
          </mxGeometry>
        </mxCell>
        <mxCell id="1EwDg9CfNvIyU5AI_Yrh-45" value="" style="shape=cube;whiteSpace=wrap;html=1;boundedLbl=1;backgroundOutline=1;darkOpacity=0.05;darkOpacity2=0.1;fillColor=#e1d5e7;strokeColor=#9673a6;" vertex="1" parent="1">
          <mxGeometry x="580" y="260" width="30" height="180" as="geometry" />
        </mxCell>
        <mxCell id="1EwDg9CfNvIyU5AI_Yrh-46" value="" style="shape=cube;whiteSpace=wrap;html=1;boundedLbl=1;backgroundOutline=1;darkOpacity=0.05;darkOpacity2=0.1;fillColor=#f8cecc;strokeColor=#b85450;" vertex="1" parent="1">
          <mxGeometry x="570" y="260" width="30" height="180" as="geometry" />
        </mxCell>
        <mxCell id="1EwDg9CfNvIyU5AI_Yrh-47" value="" style="shape=cube;whiteSpace=wrap;html=1;boundedLbl=1;backgroundOutline=1;darkOpacity=0.05;darkOpacity2=0.1;fillColor=#ffe6cc;strokeColor=#d79b00;" vertex="1" parent="1">
          <mxGeometry x="560" y="260" width="30" height="180" as="geometry" />
        </mxCell>
        <mxCell id="1EwDg9CfNvIyU5AI_Yrh-48" value="&lt;font style=&quot;font-size: 8px;&quot;&gt;(x, 1025, 8)&lt;/font&gt;" style="shape=cube;whiteSpace=wrap;html=1;boundedLbl=1;backgroundOutline=1;darkOpacity=0.05;darkOpacity2=0.1;fillColor=#dae8fc;strokeColor=#6c8ebf;" vertex="1" parent="1">
          <mxGeometry x="470" y="260" width="110" height="180" as="geometry" />
        </mxCell>
        <mxCell id="1EwDg9CfNvIyU5AI_Yrh-49" value="" style="endArrow=classic;html=1;rounded=0;entryX=0;entryY=0.278;entryDx=0;entryDy=0;entryPerimeter=0;" edge="1" parent="1">
          <mxGeometry width="50" height="50" relative="1" as="geometry">
            <mxPoint x="610" y="310" as="sourcePoint" />
            <mxPoint x="630" y="310" as="targetPoint" />
          </mxGeometry>
        </mxCell>
        <mxCell id="1EwDg9CfNvIyU5AI_Yrh-50" value="" style="endArrow=classic;html=1;rounded=0;entryX=0;entryY=0.278;entryDx=0;entryDy=0;entryPerimeter=0;" edge="1" parent="1">
          <mxGeometry width="50" height="50" relative="1" as="geometry">
            <mxPoint x="610" y="320" as="sourcePoint" />
            <mxPoint x="630" y="320" as="targetPoint" />
          </mxGeometry>
        </mxCell>
        <mxCell id="1EwDg9CfNvIyU5AI_Yrh-51" value="" style="endArrow=classic;html=1;rounded=0;entryX=0;entryY=0.278;entryDx=0;entryDy=0;entryPerimeter=0;" edge="1" parent="1">
          <mxGeometry width="50" height="50" relative="1" as="geometry">
            <mxPoint x="610" y="330" as="sourcePoint" />
            <mxPoint x="630" y="330" as="targetPoint" />
          </mxGeometry>
        </mxCell>
        <mxCell id="1EwDg9CfNvIyU5AI_Yrh-52" value="" style="endArrow=classic;html=1;rounded=0;entryX=0;entryY=0.278;entryDx=0;entryDy=0;entryPerimeter=0;" edge="1" parent="1">
          <mxGeometry width="50" height="50" relative="1" as="geometry">
            <mxPoint x="610" y="340" as="sourcePoint" />
            <mxPoint x="630" y="340" as="targetPoint" />
          </mxGeometry>
        </mxCell>
        <mxCell id="1EwDg9CfNvIyU5AI_Yrh-53" value="" style="endArrow=classic;html=1;rounded=0;entryX=0;entryY=0.278;entryDx=0;entryDy=0;entryPerimeter=0;" edge="1" parent="1">
          <mxGeometry width="50" height="50" relative="1" as="geometry">
            <mxPoint x="610" y="350" as="sourcePoint" />
            <mxPoint x="630" y="350" as="targetPoint" />
          </mxGeometry>
        </mxCell>
        <mxCell id="1EwDg9CfNvIyU5AI_Yrh-54" value="" style="endArrow=classic;html=1;rounded=0;entryX=0;entryY=0.278;entryDx=0;entryDy=0;entryPerimeter=0;" edge="1" parent="1">
          <mxGeometry width="50" height="50" relative="1" as="geometry">
            <mxPoint x="610" y="360" as="sourcePoint" />
            <mxPoint x="630" y="360" as="targetPoint" />
          </mxGeometry>
        </mxCell>
        <mxCell id="1EwDg9CfNvIyU5AI_Yrh-55" value="" style="endArrow=classic;html=1;rounded=0;entryX=0;entryY=0.278;entryDx=0;entryDy=0;entryPerimeter=0;" edge="1" parent="1">
          <mxGeometry width="50" height="50" relative="1" as="geometry">
            <mxPoint x="610" y="370" as="sourcePoint" />
            <mxPoint x="630" y="370" as="targetPoint" />
          </mxGeometry>
        </mxCell>
        <mxCell id="1EwDg9CfNvIyU5AI_Yrh-56" value="" style="endArrow=classic;html=1;rounded=0;entryX=0;entryY=0.278;entryDx=0;entryDy=0;entryPerimeter=0;" edge="1" parent="1">
          <mxGeometry width="50" height="50" relative="1" as="geometry">
            <mxPoint x="610" y="380" as="sourcePoint" />
            <mxPoint x="630" y="380" as="targetPoint" />
          </mxGeometry>
        </mxCell>
        <mxCell id="1EwDg9CfNvIyU5AI_Yrh-57" value="" style="endArrow=classic;html=1;rounded=0;entryX=0;entryY=0.278;entryDx=0;entryDy=0;entryPerimeter=0;" edge="1" parent="1">
          <mxGeometry width="50" height="50" relative="1" as="geometry">
            <mxPoint x="610" y="390" as="sourcePoint" />
            <mxPoint x="630" y="390" as="targetPoint" />
          </mxGeometry>
        </mxCell>
        <mxCell id="1EwDg9CfNvIyU5AI_Yrh-58" value="" style="endArrow=classic;html=1;rounded=0;entryX=0;entryY=0.278;entryDx=0;entryDy=0;entryPerimeter=0;" edge="1" parent="1">
          <mxGeometry width="50" height="50" relative="1" as="geometry">
            <mxPoint x="610" y="400" as="sourcePoint" />
            <mxPoint x="630" y="400" as="targetPoint" />
          </mxGeometry>
        </mxCell>
        <mxCell id="1EwDg9CfNvIyU5AI_Yrh-60" value="" style="shape=parallelogram;perimeter=parallelogramPerimeter;whiteSpace=wrap;html=1;fixedSize=1;size=25;rotation=-90;fillColor=#f5f5f5;fontColor=#333333;strokeColor=#666666;" vertex="1" parent="1">
          <mxGeometry x="550" y="337.5" width="180" height="20" as="geometry" />
        </mxCell>
        <mxCell id="1EwDg9CfNvIyU5AI_Yrh-61" value="" style="ellipse;whiteSpace=wrap;html=1;aspect=fixed;fillColor=#b1ddf0;strokeColor=#10739e;" vertex="1" parent="1">
          <mxGeometry x="670" y="258" width="22" height="22" as="geometry" />
        </mxCell>
        <mxCell id="1EwDg9CfNvIyU5AI_Yrh-62" value="" style="ellipse;whiteSpace=wrap;html=1;aspect=fixed;fillColor=#b1ddf0;strokeColor=#10739e;" vertex="1" parent="1">
          <mxGeometry x="670" y="290" width="22" height="22" as="geometry" />
        </mxCell>
        <mxCell id="1EwDg9CfNvIyU5AI_Yrh-63" value="" style="ellipse;whiteSpace=wrap;html=1;aspect=fixed;fillColor=#b1ddf0;strokeColor=#10739e;" vertex="1" parent="1">
          <mxGeometry x="670" y="323" width="22" height="22" as="geometry" />
        </mxCell>
        <mxCell id="1EwDg9CfNvIyU5AI_Yrh-64" value="" style="ellipse;whiteSpace=wrap;html=1;aspect=fixed;fillColor=#b1ddf0;strokeColor=#10739e;" vertex="1" parent="1">
          <mxGeometry x="670" y="355" width="22" height="22" as="geometry" />
        </mxCell>
        <mxCell id="1EwDg9CfNvIyU5AI_Yrh-65" value="" style="ellipse;whiteSpace=wrap;html=1;aspect=fixed;fillColor=#b1ddf0;strokeColor=#10739e;" vertex="1" parent="1">
          <mxGeometry x="670" y="387" width="22" height="22" as="geometry" />
        </mxCell>
        <mxCell id="1EwDg9CfNvIyU5AI_Yrh-66" value="" style="ellipse;whiteSpace=wrap;html=1;aspect=fixed;fillColor=#b1ddf0;strokeColor=#10739e;" vertex="1" parent="1">
          <mxGeometry x="670" y="418" width="22" height="22" as="geometry" />
        </mxCell>
        <mxCell id="1EwDg9CfNvIyU5AI_Yrh-67" value="" style="ellipse;whiteSpace=wrap;html=1;aspect=fixed;fillColor=#b1ddf0;strokeColor=#10739e;" vertex="1" parent="1">
          <mxGeometry x="670" y="230" width="22" height="22" as="geometry" />
        </mxCell>
        <mxCell id="1EwDg9CfNvIyU5AI_Yrh-68" value="" style="ellipse;whiteSpace=wrap;html=1;aspect=fixed;fillColor=#b1ddf0;strokeColor=#10739e;" vertex="1" parent="1">
          <mxGeometry x="670" y="450" width="22" height="22" as="geometry" />
        </mxCell>
        <mxCell id="1EwDg9CfNvIyU5AI_Yrh-69" value="" style="endArrow=classic;html=1;rounded=0;entryX=0;entryY=1;entryDx=0;entryDy=0;exitX=0.75;exitY=1;exitDx=0;exitDy=0;" edge="1" parent="1" source="1EwDg9CfNvIyU5AI_Yrh-60" target="1EwDg9CfNvIyU5AI_Yrh-67">
          <mxGeometry width="50" height="50" relative="1" as="geometry">
            <mxPoint x="640" y="310" as="sourcePoint" />
            <mxPoint x="690" y="260" as="targetPoint" />
          </mxGeometry>
        </mxCell>
        <mxCell id="1EwDg9CfNvIyU5AI_Yrh-70" value="" style="endArrow=classic;html=1;rounded=0;entryX=0;entryY=1;entryDx=0;entryDy=0;" edge="1" parent="1" target="1EwDg9CfNvIyU5AI_Yrh-61">
          <mxGeometry width="50" height="50" relative="1" as="geometry">
            <mxPoint x="650" y="320" as="sourcePoint" />
            <mxPoint x="683" y="259" as="targetPoint" />
          </mxGeometry>
        </mxCell>
        <mxCell id="1EwDg9CfNvIyU5AI_Yrh-71" value="" style="endArrow=classic;html=1;rounded=0;entryX=0;entryY=1;entryDx=0;entryDy=0;exitX=0.543;exitY=0.94;exitDx=0;exitDy=0;exitPerimeter=0;" edge="1" parent="1" source="1EwDg9CfNvIyU5AI_Yrh-60" target="1EwDg9CfNvIyU5AI_Yrh-62">
          <mxGeometry width="50" height="50" relative="1" as="geometry">
            <mxPoint x="650" y="360" as="sourcePoint" />
            <mxPoint x="700" y="310" as="targetPoint" />
          </mxGeometry>
        </mxCell>
        <mxCell id="1EwDg9CfNvIyU5AI_Yrh-72" value="" style="endArrow=classic;html=1;rounded=0;entryX=0;entryY=0.5;entryDx=0;entryDy=0;exitX=0.469;exitY=0.96;exitDx=0;exitDy=0;exitPerimeter=0;" edge="1" parent="1" source="1EwDg9CfNvIyU5AI_Yrh-60" target="1EwDg9CfNvIyU5AI_Yrh-63">
          <mxGeometry width="50" height="50" relative="1" as="geometry">
            <mxPoint x="659" y="350" as="sourcePoint" />
            <mxPoint x="683" y="319" as="targetPoint" />
          </mxGeometry>
        </mxCell>
        <mxCell id="1EwDg9CfNvIyU5AI_Yrh-74" value="" style="endArrow=classic;html=1;rounded=0;entryX=0;entryY=0.5;entryDx=0;entryDy=0;exitX=0.401;exitY=1;exitDx=0;exitDy=0;exitPerimeter=0;" edge="1" parent="1" source="1EwDg9CfNvIyU5AI_Yrh-60" target="1EwDg9CfNvIyU5AI_Yrh-64">
          <mxGeometry width="50" height="50" relative="1" as="geometry">
            <mxPoint x="659" y="363" as="sourcePoint" />
            <mxPoint x="680" y="344" as="targetPoint" />
          </mxGeometry>
        </mxCell>
        <mxCell id="1EwDg9CfNvIyU5AI_Yrh-75" value="" style="endArrow=classic;html=1;rounded=0;entryX=0;entryY=0.5;entryDx=0;entryDy=0;exitX=0.312;exitY=0.92;exitDx=0;exitDy=0;exitPerimeter=0;" edge="1" parent="1" source="1EwDg9CfNvIyU5AI_Yrh-60" target="1EwDg9CfNvIyU5AI_Yrh-65">
          <mxGeometry width="50" height="50" relative="1" as="geometry">
            <mxPoint x="662" y="375" as="sourcePoint" />
            <mxPoint x="680" y="376" as="targetPoint" />
          </mxGeometry>
        </mxCell>
        <mxCell id="1EwDg9CfNvIyU5AI_Yrh-76" value="" style="endArrow=classic;html=1;rounded=0;entryX=0.109;entryY=0.391;entryDx=0;entryDy=0;exitX=0.25;exitY=1;exitDx=0;exitDy=0;entryPerimeter=0;" edge="1" parent="1" source="1EwDg9CfNvIyU5AI_Yrh-60" target="1EwDg9CfNvIyU5AI_Yrh-66">
          <mxGeometry width="50" height="50" relative="1" as="geometry">
            <mxPoint x="658" y="391" as="sourcePoint" />
            <mxPoint x="680" y="408" as="targetPoint" />
          </mxGeometry>
        </mxCell>
        <mxCell id="1EwDg9CfNvIyU5AI_Yrh-77" value="" style="endArrow=classic;html=1;rounded=0;entryX=0;entryY=0;entryDx=0;entryDy=0;exitX=0.109;exitY=1.04;exitDx=0;exitDy=0;exitPerimeter=0;" edge="1" parent="1" source="1EwDg9CfNvIyU5AI_Yrh-60" target="1EwDg9CfNvIyU5AI_Yrh-68">
          <mxGeometry width="50" height="50" relative="1" as="geometry">
            <mxPoint x="660" y="403" as="sourcePoint" />
            <mxPoint x="682" y="437" as="targetPoint" />
          </mxGeometry>
        </mxCell>
        <mxCell id="1EwDg9CfNvIyU5AI_Yrh-78" value="" style="endArrow=classic;html=1;rounded=0;entryX=0;entryY=0.5;entryDx=0;entryDy=0;exitX=0.146;exitY=1.093;exitDx=0;exitDy=0;exitPerimeter=0;" edge="1" parent="1" source="1EwDg9CfNvIyU5AI_Yrh-60" target="1EwDg9CfNvIyU5AI_Yrh-65">
          <mxGeometry width="50" height="50" relative="1" as="geometry">
            <mxPoint x="670" y="413" as="sourcePoint" />
            <mxPoint x="692" y="447" as="targetPoint" />
          </mxGeometry>
        </mxCell>
        <mxCell id="1EwDg9CfNvIyU5AI_Yrh-79" value="" style="endArrow=classic;html=1;rounded=0;entryX=0;entryY=0.5;entryDx=0;entryDy=0;exitX=0.131;exitY=0.979;exitDx=0;exitDy=0;exitPerimeter=0;" edge="1" parent="1" source="1EwDg9CfNvIyU5AI_Yrh-60" target="1EwDg9CfNvIyU5AI_Yrh-66">
          <mxGeometry width="50" height="50" relative="1" as="geometry">
            <mxPoint x="680" y="423" as="sourcePoint" />
            <mxPoint x="702" y="457" as="targetPoint" />
          </mxGeometry>
        </mxCell>
        <mxCell id="1EwDg9CfNvIyU5AI_Yrh-80" value="" style="endArrow=classic;html=1;rounded=0;entryX=0.058;entryY=0.708;entryDx=0;entryDy=0;exitX=0.07;exitY=1.064;exitDx=0;exitDy=0;entryPerimeter=0;exitPerimeter=0;" edge="1" parent="1" source="1EwDg9CfNvIyU5AI_Yrh-60" target="1EwDg9CfNvIyU5AI_Yrh-64">
          <mxGeometry width="50" height="50" relative="1" as="geometry">
            <mxPoint x="690" y="433" as="sourcePoint" />
            <mxPoint x="712" y="467" as="targetPoint" />
          </mxGeometry>
        </mxCell>
        <mxCell id="1EwDg9CfNvIyU5AI_Yrh-81" value="" style="endArrow=classic;html=1;rounded=0;entryX=0;entryY=1;entryDx=0;entryDy=0;exitX=0.353;exitY=0.979;exitDx=0;exitDy=0;exitPerimeter=0;" edge="1" parent="1" source="1EwDg9CfNvIyU5AI_Yrh-60" target="1EwDg9CfNvIyU5AI_Yrh-62">
          <mxGeometry width="50" height="50" relative="1" as="geometry">
            <mxPoint x="700" y="443" as="sourcePoint" />
            <mxPoint x="722" y="477" as="targetPoint" />
          </mxGeometry>
        </mxCell>
        <mxCell id="1EwDg9CfNvIyU5AI_Yrh-82" value="" style="endArrow=classic;html=1;rounded=0;entryX=0;entryY=0.5;entryDx=0;entryDy=0;exitX=0.75;exitY=1;exitDx=0;exitDy=0;" edge="1" parent="1" source="1EwDg9CfNvIyU5AI_Yrh-60" target="1EwDg9CfNvIyU5AI_Yrh-63">
          <mxGeometry width="50" height="50" relative="1" as="geometry">
            <mxPoint x="710" y="453" as="sourcePoint" />
            <mxPoint x="732" y="487" as="targetPoint" />
          </mxGeometry>
        </mxCell>
        <mxCell id="1EwDg9CfNvIyU5AI_Yrh-83" value="" style="endArrow=classic;html=1;rounded=0;entryX=0;entryY=0;entryDx=0;entryDy=0;exitX=0.8;exitY=1.121;exitDx=0;exitDy=0;exitPerimeter=0;" edge="1" parent="1" source="1EwDg9CfNvIyU5AI_Yrh-60" target="1EwDg9CfNvIyU5AI_Yrh-64">
          <mxGeometry width="50" height="50" relative="1" as="geometry">
            <mxPoint x="720" y="463" as="sourcePoint" />
            <mxPoint x="742" y="497" as="targetPoint" />
          </mxGeometry>
        </mxCell>
        <mxCell id="1EwDg9CfNvIyU5AI_Yrh-84" value="" style="endArrow=classic;html=1;rounded=0;entryX=-0.045;entryY=0.338;entryDx=0;entryDy=0;exitX=0.5;exitY=1;exitDx=0;exitDy=0;entryPerimeter=0;" edge="1" parent="1" source="1EwDg9CfNvIyU5AI_Yrh-60" target="1EwDg9CfNvIyU5AI_Yrh-67">
          <mxGeometry width="50" height="50" relative="1" as="geometry">
            <mxPoint x="730" y="473" as="sourcePoint" />
            <mxPoint x="752" y="507" as="targetPoint" />
          </mxGeometry>
        </mxCell>
        <mxCell id="1EwDg9CfNvIyU5AI_Yrh-85" value="" style="endArrow=classic;html=1;rounded=0;entryX=0;entryY=1;entryDx=0;entryDy=0;exitX=0.816;exitY=1.007;exitDx=0;exitDy=0;exitPerimeter=0;" edge="1" parent="1" source="1EwDg9CfNvIyU5AI_Yrh-60" target="1EwDg9CfNvIyU5AI_Yrh-67">
          <mxGeometry width="50" height="50" relative="1" as="geometry">
            <mxPoint x="740" y="483" as="sourcePoint" />
            <mxPoint x="762" y="517" as="targetPoint" />
          </mxGeometry>
        </mxCell>
        <mxCell id="1EwDg9CfNvIyU5AI_Yrh-86" value="" style="endArrow=classic;html=1;rounded=0;entryX=0;entryY=0.5;entryDx=0;entryDy=0;exitX=0.702;exitY=1.007;exitDx=0;exitDy=0;exitPerimeter=0;" edge="1" parent="1" source="1EwDg9CfNvIyU5AI_Yrh-60" target="1EwDg9CfNvIyU5AI_Yrh-62">
          <mxGeometry width="50" height="50" relative="1" as="geometry">
            <mxPoint x="750" y="493" as="sourcePoint" />
            <mxPoint x="772" y="527" as="targetPoint" />
          </mxGeometry>
        </mxCell>
        <mxCell id="1EwDg9CfNvIyU5AI_Yrh-87" value="" style="endArrow=classic;html=1;rounded=0;entryX=-0.071;entryY=0.727;entryDx=0;entryDy=0;entryPerimeter=0;" edge="1" parent="1" target="1EwDg9CfNvIyU5AI_Yrh-61">
          <mxGeometry width="50" height="50" relative="1" as="geometry">
            <mxPoint x="650" y="300" as="sourcePoint" />
            <mxPoint x="782" y="537" as="targetPoint" />
          </mxGeometry>
        </mxCell>
        <mxCell id="1EwDg9CfNvIyU5AI_Yrh-88" value="" style="endArrow=classic;html=1;rounded=0;entryX=0;entryY=0;entryDx=0;entryDy=0;exitX=0.597;exitY=1;exitDx=0;exitDy=0;exitPerimeter=0;" edge="1" parent="1" source="1EwDg9CfNvIyU5AI_Yrh-60" target="1EwDg9CfNvIyU5AI_Yrh-68">
          <mxGeometry width="50" height="50" relative="1" as="geometry">
            <mxPoint x="770" y="513" as="sourcePoint" />
            <mxPoint x="792" y="547" as="targetPoint" />
          </mxGeometry>
        </mxCell>
        <mxCell id="1EwDg9CfNvIyU5AI_Yrh-89" value="" style="endArrow=classic;html=1;rounded=0;entryX=0;entryY=0;entryDx=0;entryDy=0;exitX=0.397;exitY=1.036;exitDx=0;exitDy=0;exitPerimeter=0;" edge="1" parent="1" source="1EwDg9CfNvIyU5AI_Yrh-60" target="1EwDg9CfNvIyU5AI_Yrh-65">
          <mxGeometry width="50" height="50" relative="1" as="geometry">
            <mxPoint x="780" y="523" as="sourcePoint" />
            <mxPoint x="802" y="557" as="targetPoint" />
          </mxGeometry>
        </mxCell>
        <mxCell id="1EwDg9CfNvIyU5AI_Yrh-90" value="" style="endArrow=classic;html=1;rounded=0;entryX=-0.019;entryY=0.266;entryDx=0;entryDy=0;exitX=0.531;exitY=1.007;exitDx=0;exitDy=0;entryPerimeter=0;exitPerimeter=0;" edge="1" parent="1" source="1EwDg9CfNvIyU5AI_Yrh-60" target="1EwDg9CfNvIyU5AI_Yrh-64">
          <mxGeometry width="50" height="50" relative="1" as="geometry">
            <mxPoint x="790" y="533" as="sourcePoint" />
            <mxPoint x="812" y="567" as="targetPoint" />
          </mxGeometry>
        </mxCell>
        <mxCell id="1EwDg9CfNvIyU5AI_Yrh-91" value="" style="ellipse;whiteSpace=wrap;html=1;aspect=fixed;fillColor=#d0cee2;strokeColor=#56517e;" vertex="1" parent="1">
          <mxGeometry x="710" y="331" width="38" height="38" as="geometry" />
        </mxCell>
        <mxCell id="1EwDg9CfNvIyU5AI_Yrh-92" value="" style="endArrow=classic;html=1;rounded=0;entryX=0.244;entryY=0.079;entryDx=0;entryDy=0;exitX=1.019;exitY=0.701;exitDx=0;exitDy=0;entryPerimeter=0;exitPerimeter=0;" edge="1" parent="1" source="1EwDg9CfNvIyU5AI_Yrh-67" target="1EwDg9CfNvIyU5AI_Yrh-91">
          <mxGeometry width="50" height="50" relative="1" as="geometry">
            <mxPoint x="800" y="543" as="sourcePoint" />
            <mxPoint x="822" y="577" as="targetPoint" />
          </mxGeometry>
        </mxCell>
        <mxCell id="1EwDg9CfNvIyU5AI_Yrh-93" value="" style="endArrow=classic;html=1;rounded=0;entryX=0.094;entryY=0.289;entryDx=0;entryDy=0;exitX=1;exitY=1;exitDx=0;exitDy=0;entryPerimeter=0;" edge="1" parent="1" source="1EwDg9CfNvIyU5AI_Yrh-61" target="1EwDg9CfNvIyU5AI_Yrh-91">
          <mxGeometry width="50" height="50" relative="1" as="geometry">
            <mxPoint x="810" y="553" as="sourcePoint" />
            <mxPoint x="832" y="587" as="targetPoint" />
          </mxGeometry>
        </mxCell>
        <mxCell id="1EwDg9CfNvIyU5AI_Yrh-94" value="" style="endArrow=classic;html=1;rounded=0;entryX=0;entryY=0.5;entryDx=0;entryDy=0;exitX=1;exitY=1;exitDx=0;exitDy=0;" edge="1" parent="1" source="1EwDg9CfNvIyU5AI_Yrh-62" target="1EwDg9CfNvIyU5AI_Yrh-91">
          <mxGeometry width="50" height="50" relative="1" as="geometry">
            <mxPoint x="820" y="563" as="sourcePoint" />
            <mxPoint x="842" y="597" as="targetPoint" />
          </mxGeometry>
        </mxCell>
        <mxCell id="1EwDg9CfNvIyU5AI_Yrh-95" value="" style="endArrow=classic;html=1;rounded=0;entryX=0;entryY=0.5;entryDx=0;entryDy=0;exitX=0.994;exitY=0.708;exitDx=0;exitDy=0;exitPerimeter=0;" edge="1" parent="1" source="1EwDg9CfNvIyU5AI_Yrh-63" target="1EwDg9CfNvIyU5AI_Yrh-91">
          <mxGeometry width="50" height="50" relative="1" as="geometry">
            <mxPoint x="830" y="573" as="sourcePoint" />
            <mxPoint x="852" y="607" as="targetPoint" />
          </mxGeometry>
        </mxCell>
        <mxCell id="1EwDg9CfNvIyU5AI_Yrh-96" value="" style="endArrow=classic;html=1;rounded=0;entryX=0;entryY=0.5;entryDx=0;entryDy=0;exitX=1;exitY=0.5;exitDx=0;exitDy=0;" edge="1" parent="1" source="1EwDg9CfNvIyU5AI_Yrh-64" target="1EwDg9CfNvIyU5AI_Yrh-91">
          <mxGeometry width="50" height="50" relative="1" as="geometry">
            <mxPoint x="840" y="583" as="sourcePoint" />
            <mxPoint x="862" y="617" as="targetPoint" />
          </mxGeometry>
        </mxCell>
        <mxCell id="1EwDg9CfNvIyU5AI_Yrh-97" value="" style="endArrow=classic;html=1;rounded=0;entryX=0.034;entryY=0.711;entryDx=0;entryDy=0;exitX=1;exitY=0.5;exitDx=0;exitDy=0;entryPerimeter=0;" edge="1" parent="1" source="1EwDg9CfNvIyU5AI_Yrh-65" target="1EwDg9CfNvIyU5AI_Yrh-91">
          <mxGeometry width="50" height="50" relative="1" as="geometry">
            <mxPoint x="850" y="593" as="sourcePoint" />
            <mxPoint x="872" y="627" as="targetPoint" />
          </mxGeometry>
        </mxCell>
        <mxCell id="1EwDg9CfNvIyU5AI_Yrh-98" value="" style="endArrow=classic;html=1;rounded=0;entryX=0;entryY=1;entryDx=0;entryDy=0;exitX=1;exitY=0.5;exitDx=0;exitDy=0;" edge="1" parent="1" source="1EwDg9CfNvIyU5AI_Yrh-66" target="1EwDg9CfNvIyU5AI_Yrh-91">
          <mxGeometry width="50" height="50" relative="1" as="geometry">
            <mxPoint x="860" y="603" as="sourcePoint" />
            <mxPoint x="882" y="637" as="targetPoint" />
          </mxGeometry>
        </mxCell>
        <mxCell id="1EwDg9CfNvIyU5AI_Yrh-99" value="" style="endArrow=classic;html=1;rounded=0;entryX=0.305;entryY=0.951;entryDx=0;entryDy=0;exitX=1;exitY=0;exitDx=0;exitDy=0;entryPerimeter=0;" edge="1" parent="1" source="1EwDg9CfNvIyU5AI_Yrh-68" target="1EwDg9CfNvIyU5AI_Yrh-91">
          <mxGeometry width="50" height="50" relative="1" as="geometry">
            <mxPoint x="870" y="613" as="sourcePoint" />
            <mxPoint x="892" y="647" as="targetPoint" />
          </mxGeometry>
        </mxCell>
        <mxCell id="1EwDg9CfNvIyU5AI_Yrh-100" value="&lt;font style=&quot;font-size: 9px;&quot;&gt;Konwolucja 1D 1&lt;br&gt;+ Batch normalization&lt;br&gt;+ Funkcja aktywacji&lt;br&gt;+ warstwa dropout&lt;br&gt;+ globalny MaxPool&lt;br&gt;&lt;/font&gt;" style="text;html=1;strokeColor=none;fillColor=none;align=center;verticalAlign=middle;whiteSpace=wrap;rounded=0;" vertex="1" parent="1">
          <mxGeometry x="160" y="303.5" width="110" height="30" as="geometry" />
        </mxCell>
        <mxCell id="1EwDg9CfNvIyU5AI_Yrh-101" value="&lt;font style=&quot;font-size: 9px;&quot;&gt;Konwolucja 1D 2&lt;br&gt;+ Batch normalization&lt;br&gt;+ Funkcja aktywacji&lt;br&gt;+ warstwa dropout&lt;br&gt;+ globalny MaxPool&lt;br&gt;&lt;/font&gt;" style="text;html=1;strokeColor=none;fillColor=none;align=center;verticalAlign=middle;whiteSpace=wrap;rounded=0;" vertex="1" parent="1">
          <mxGeometry x="320" y="303.5" width="110" height="30" as="geometry" />
        </mxCell>
        <mxCell id="1EwDg9CfNvIyU5AI_Yrh-102" value="&lt;font style=&quot;font-size: 9px;&quot;&gt;Konwolucja 1D 3&lt;br&gt;+ Batch normalization&lt;br&gt;+ Funkcja aktywacji&lt;br&gt;+ warstwa dropout&lt;br&gt;+ globalny MaxPool&lt;br&gt;&lt;/font&gt;" style="text;html=1;strokeColor=none;fillColor=none;align=center;verticalAlign=middle;whiteSpace=wrap;rounded=0;" vertex="1" parent="1">
          <mxGeometry x="480" y="303.5" width="110" height="30" as="geometry" />
        </mxCell>
        <mxCell id="1EwDg9CfNvIyU5AI_Yrh-103" value="Warstwa wejściowa" style="text;html=1;strokeColor=none;fillColor=none;align=center;verticalAlign=middle;whiteSpace=wrap;rounded=0;" vertex="1" parent="1">
          <mxGeometry x="40" y="220" width="90" height="30" as="geometry" />
        </mxCell>
        <mxCell id="1EwDg9CfNvIyU5AI_Yrh-104" value="&lt;div style=&quot;&quot;&gt;&lt;font style=&quot;font-size: 12px;&quot;&gt;Warstwy&amp;nbsp;&lt;/font&gt;&lt;/div&gt;&lt;div style=&quot;&quot;&gt;&lt;font style=&quot;font-size: 12px;&quot;&gt;ukryte&lt;/font&gt;&lt;/div&gt;" style="text;html=1;strokeColor=none;fillColor=none;align=center;verticalAlign=middle;whiteSpace=wrap;rounded=0;" vertex="1" parent="1">
          <mxGeometry x="140" y="220" width="90" height="30" as="geometry" />
        </mxCell>
        <mxCell id="1EwDg9CfNvIyU5AI_Yrh-105" value="Warstwa wyjściowa" style="text;html=1;strokeColor=none;fillColor=none;align=center;verticalAlign=middle;whiteSpace=wrap;rounded=0;" vertex="1" parent="1">
          <mxGeometry x="692" y="220" width="90" height="30" as="geometry" />
        </mxCell>
        <mxCell id="1EwDg9CfNvIyU5AI_Yrh-106" value="" style="swimlane;startSize=0;dashed=1;dashPattern=1 1;" vertex="1" parent="1">
          <mxGeometry x="50" y="254" width="90" height="192" as="geometry" />
        </mxCell>
        <mxCell id="1EwDg9CfNvIyU5AI_Yrh-107" value="" style="swimlane;startSize=0;dashed=1;dashPattern=1 1;" vertex="1" parent="1">
          <mxGeometry x="150" y="254" width="550" height="192" as="geometry" />
        </mxCell>
        <mxCell id="1EwDg9CfNvIyU5AI_Yrh-108" value="" style="swimlane;startSize=0;dashed=1;dashPattern=1 1;" vertex="1" parent="1">
          <mxGeometry x="710" y="254" width="50" height="192" as="geometry" />
        </mxCell>
      </root>
    </mxGraphModel>
  </diagram>
</mxfile>
